<svg width="27" height="24" viewBox="0 0 27 24" fill="none" xmlns="http://www.w3.org/2000/svg">
<rect x="1.5" width="24" height="24" rx="3" fill="#FFAF37"/>
<path d="M13.0474 5.96431C13.2273 5.5809 13.7727 5.5809 13.9526 5.96431L15.5498 9.367C15.6206 9.51794 15.762 9.62363 15.9269 9.64881L19.5381 10.2006C19.9404 10.262 20.1047 10.7527 19.8205 11.044L17.1762 13.7541C17.0654 13.8677 17.0151 14.0272 17.0406 14.1838L17.6605 17.9838C17.7277 18.3957 17.2904 18.7038 16.9251 18.5019L13.7419 16.7422C13.5914 16.659 13.4086 16.659 13.2581 16.7422L10.0749 18.5019C9.70962 18.7038 9.27233 18.3957 9.33953 17.9838L9.95937 14.1838C9.98492 14.0272 9.9346 13.8677 9.82377 13.7541L7.17954 11.044C6.89533 10.7527 7.0596 10.262 7.4619 10.2006L11.0731 9.64881C11.238 9.62363 11.3794 9.51794 11.4502 9.36699L13.0474 5.96431Z" fill="#AE741C"/>
</svg>
