<?xml version="1.0" standalone="no"?>
<!DOCTYPE svg PUBLIC "-//W3C//DTD SVG 20010904//EN"
 "http://www.w3.org/TR/2001/REC-SVG-20010904/DTD/svg10.dtd">
<svg version="1.0" xmlns="http://www.w3.org/2000/svg"
 width="780.000000pt" height="780.000000pt" viewBox="0 0 780.000000 780.000000"
 preserveAspectRatio="xMidYMid meet">
<metadata>
Created by potrace 1.14, written by Peter Selinger 2001-2017
</metadata>
<g transform="translate(0.000000,780.000000) scale(0.100000,-0.100000)"
fill="#000000" stroke="none">
<path d="M3257 6744 c-1 -2 -15 -5 -30 -8 -15 -3 -39 -9 -54 -12 -16 -4 -39
-8 -53 -9 -14 -2 -26 -4 -27 -5 -2 -1 -7 -4 -13 -5 -5 -1 -11 -4 -12 -5 -2 -1
-14 -3 -28 -5 -21 -2 -52 -8 -95 -18 -30 -8 -71 -58 -58 -71 4 -4 8 -14 9 -24
1 -9 6 -30 10 -47 4 -16 8 -43 9 -60 2 -16 4 -31 5 -32 1 -2 4 -12 5 -23 1
-11 3 -21 5 -22 1 -2 3 -10 5 -18 2 -8 6 -22 9 -30 4 -10 -5 -26 -23 -44 -16
-15 -31 -27 -33 -26 -13 7 -95 -24 -236 -91 -34 -16 -72 -29 -85 -29 -21 0
-62 19 -42 20 7 0 7 3 0 8 -16 11 -65 80 -65 90 0 5 -9 17 -20 27 -11 10 -20
22 -20 26 0 5 -7 17 -15 26 -8 10 -20 26 -28 36 -13 18 -84 31 -89 16 -2 -4
-73 -54 -158 -112 -104 -70 -158 -113 -164 -129 -7 -21 -2 -36 35 -92 24 -36
47 -66 51 -66 4 0 8 -7 8 -15 0 -8 9 -24 20 -35 11 -11 20 -22 20 -25 0 -3 6
-18 15 -35 10 -18 11 -31 5 -35 -6 -4 -8 -10 -5 -15 3 -5 -4 -15 -16 -24 -29
-20 -177 -167 -213 -211 -15 -19 -32 -32 -37 -29 -5 3 -9 0 -9 -6 0 -7 -6 -8
-17 -1 -10 5 -20 9 -23 9 -11 0 -110 66 -110 73 0 5 -5 9 -11 9 -6 0 -36 16
-67 35 -41 24 -64 33 -80 28 -16 -4 -50 -46 -104 -127 -44 -66 -86 -124 -92
-128 -6 -4 -7 -8 -2 -8 5 0 3 -8 -5 -17 -27 -33 -45 -78 -41 -101 2 -15 29
-39 77 -72 41 -28 76 -50 79 -50 6 0 37 -24 61 -47 7 -7 15 -9 18 -6 4 3 11
-5 17 -18 9 -20 4 -40 -33 -124 -24 -55 -56 -134 -72 -175 -31 -84 -43 -101
-71 -101 -29 0 -97 12 -114 21 -8 4 -24 6 -35 4 -10 -1 -24 1 -30 6 -6 5 -21
8 -33 5 -12 -2 -22 0 -22 5 0 11 -50 7 -71 -5 -20 -13 -42 -53 -34 -65 3 -5 1
-11 -4 -15 -5 -3 -10 -13 -9 -23 0 -18 -7 -59 -17 -102 -3 -14 -8 -36 -10 -50
-2 -14 -7 -36 -10 -50 -3 -14 -7 -49 -9 -79 -2 -41 2 -58 16 -70 10 -10 69
-26 149 -41 72 -14 139 -30 148 -36 14 -11 16 -39 18 -196 2 -235 3 -233 -50
-247 -23 -6 -56 -12 -74 -15 -17 -2 -36 -6 -40 -9 -5 -3 -27 -8 -48 -11 -105
-13 -121 -28 -119 -102 1 -27 3 -49 4 -49 2 0 11 -36 16 -70 9 -65 12 -80 14
-80 3 0 11 -46 24 -122 2 -12 10 -33 19 -47 14 -21 22 -24 69 -21 29 1 55 4
58 5 3 2 10 4 15 5 6 2 12 4 15 5 5 2 20 4 75 13 11 2 25 5 30 8 6 3 28 5 50
5 33 -1 42 -6 55 -31 8 -16 18 -32 23 -33 4 -2 5 -8 2 -13 -3 -5 0 -19 7 -31
6 -13 13 -30 15 -39 1 -9 23 -61 48 -115 30 -65 44 -106 40 -121 -3 -13 -24
-35 -48 -49 -23 -15 -44 -30 -47 -34 -3 -4 -16 -13 -30 -20 -56 -30 -128 -92
-132 -115 -3 -13 -2 -26 1 -27 4 -2 27 -33 50 -70 24 -38 48 -68 52 -68 5 0 6
-7 3 -15 -4 -10 0 -15 11 -15 9 0 14 -3 12 -7 -3 -5 18 -42 47 -83 74 -107 82
-108 200 -30 53 34 96 66 96 71 0 4 13 10 30 14 16 4 32 11 35 15 11 18 52
-16 183 -151 l134 -138 -23 -41 c-13 -22 -31 -49 -41 -60 -10 -10 -18 -22 -18
-25 0 -3 -21 -36 -46 -75 -70 -105 -75 -97 181 -262 163 -106 167 -106 253 26
25 39 49 73 52 76 3 3 13 19 22 35 21 38 62 47 105 24 17 -10 34 -15 37 -12 3
4 6 1 6 -5 0 -7 8 -12 18 -12 10 0 22 -3 26 -8 4 -4 11 -7 14 -7 4 -1 23 -8
42 -17 19 -9 59 -25 89 -34 79 -25 94 -43 86 -107 -4 -29 -7 -58 -8 -64 0 -7
-4 -13 -9 -13 -5 0 -6 -11 -4 -25 3 -14 1 -25 -4 -25 -5 0 -7 -10 -5 -21 3
-12 1 -27 -3 -33 -3 -6 -7 -28 -8 -48 -1 -43 16 -64 61 -72 17 -2 41 -8 55
-11 14 -3 34 -8 45 -10 53 -10 91 -17 103 -17 6 -1 12 -4 12 -7 0 -3 11 -7 25
-8 14 -1 36 -3 50 -4 14 -1 28 -5 30 -9 3 -4 23 -3 46 2 49 13 58 32 74 153 3
21 9 42 13 45 4 3 8 28 10 55 6 85 5 84 233 85 236 0 215 13 248 -160 12 -63
27 -127 33 -142 15 -39 55 -43 166 -18 51 11 97 18 102 15 5 -3 12 0 15 6 4 5
13 8 21 5 7 -3 16 -1 19 4 3 5 13 8 23 8 15 -1 36 3 82 14 27 6 48 38 48 73 0
19 -4 37 -8 40 -4 3 -6 14 -3 25 3 11 1 20 -3 20 -5 0 -10 21 -11 47 -2 26 -6
49 -10 52 -5 3 -9 27 -11 52 -3 42 0 49 26 68 17 11 35 21 42 21 6 0 35 9 63
21 29 12 61 25 72 29 22 9 159 71 162 74 1 1 -101 106 -228 233 l-230 231 -33
-13 c-84 -35 -299 -84 -392 -89 -22 -2 -45 -5 -50 -8 -13 -8 -304 -6 -304 2 0
4 -11 5 -25 2 -13 -2 -33 -1 -42 3 -10 5 -24 7 -31 6 -25 -4 -178 31 -287 66
-109 35 -297 118 -303 135 -2 4 -8 6 -13 2 -5 -3 -9 0 -9 6 0 6 -4 8 -10 5 -5
-3 -10 -1 -10 5 0 6 -4 8 -10 5 -5 -3 -10 -2 -10 4 0 10 -53 42 -66 41 -3 -1
-14 8 -23 19 -10 12 -23 21 -28 21 -6 0 -18 9 -28 20 -10 11 -22 20 -27 20 -9
0 -21 10 -150 137 -104 103 -154 158 -175 194 -10 16 -21 29 -25 29 -4 0 -8 7
-8 15 0 8 -5 15 -11 15 -5 0 -7 5 -4 10 3 6 0 12 -7 15 -8 3 -25 27 -38 53
-14 26 -29 50 -35 54 -5 4 -6 8 -1 8 5 0 2 8 -7 18 -48 53 -143 316 -183 507
-25 116 -28 151 -28 330 0 245 10 305 84 540 34 107 98 255 115 267 5 4 6 8 1
8 -5 0 -2 8 7 18 8 9 15 20 14 24 -1 4 6 16 15 28 10 11 15 20 11 20 -3 0 4
11 17 25 13 14 20 25 16 25 -6 0 43 69 94 133 57 73 166 184 237 244 85 72 98
83 104 83 4 0 21 13 40 29 18 16 37 27 41 25 4 -3 8 -1 8 3 0 5 21 20 47 33
26 14 54 31 61 38 7 6 22 12 32 12 10 0 21 7 24 16 4 9 9 14 12 11 3 -3 33 7
67 23 71 32 260 91 362 114 39 8 130 20 204 27 248 23 520 -17 771 -113 75
-29 233 -107 241 -120 3 -5 10 -9 15 -8 12 2 84 -43 84 -52 0 -5 7 -8 15 -8 9
0 18 -7 21 -15 4 -8 10 -15 15 -15 22 0 259 -203 259 -222 0 -4 15 -23 33 -41
72 -71 173 -217 237 -343 19 -38 37 -71 40 -74 3 -3 7 -14 8 -25 2 -11 9 -23
15 -27 7 -4 8 -8 3 -8 -6 0 -5 -5 2 -12 7 -7 12 -18 12 -24 0 -7 5 -25 11 -41
6 -15 9 -28 8 -28 -1 0 3 -9 9 -21 6 -11 13 -32 16 -45 3 -13 12 -50 20 -81 9
-32 20 -84 26 -115 5 -32 12 -71 15 -88 3 -16 6 -113 7 -215 1 -150 -3 -206
-20 -295 -23 -124 -31 -158 -44 -195 -3 -8 -11 -35 -18 -60 -7 -25 -16 -49
-20 -55 -5 -6 2 -22 16 -38 13 -15 24 -26 24 -23 0 3 9 -3 20 -14 11 -11 20
-24 20 -29 0 -5 8 -12 18 -15 9 -3 28 -22 41 -41 13 -20 26 -33 28 -31 6 6 43
-32 43 -44 0 -5 3 -10 8 -10 4 0 31 -22 59 -50 28 -27 50 -50 48 -50 -2 0 7
-11 21 -25 14 -14 29 -25 34 -25 6 0 10 -6 11 -12 0 -7 15 -25 34 -41 l33 -27
34 72 c19 40 52 119 73 174 43 112 69 140 113 123 25 -10 71 -19 112 -24 14
-2 26 -4 28 -5 1 -1 11 -4 22 -5 11 -1 21 -3 23 -4 1 -2 13 -5 27 -7 40 -8 69
4 84 34 17 33 50 201 42 209 -3 4 -1 11 4 18 18 22 39 157 27 182 -11 25 -74
48 -157 59 -14 2 -36 6 -50 10 -14 4 -32 8 -40 9 -45 6 -79 18 -74 26 3 5 1 9
-3 9 -13 0 -10 393 3 407 13 13 56 25 169 48 158 32 168 40 151 134 -5 31 -12
58 -15 61 -3 3 -7 14 -7 25 -5 70 -43 240 -59 261 -13 18 -73 23 -125 10 -41
-10 -84 -18 -100 -18 -8 -1 -21 -5 -28 -11 -7 -5 -15 -7 -18 -4 -3 3 -19 1
-35 -3 -18 -5 -29 -5 -29 1 0 6 -4 8 -8 5 -9 -5 -16 8 -102 209 -66 152 -68
165 -37 198 13 15 27 24 30 20 4 -3 7 -1 7 5 0 7 6 12 14 12 8 0 17 7 20 16 4
9 9 14 12 11 4 -3 11 -1 18 4 6 6 38 28 70 49 53 35 60 43 62 75 1 19 -3 35
-8 35 -5 0 -6 5 -3 10 3 6 1 10 -4 10 -6 0 -11 6 -11 13 0 6 -11 25 -25 41
-13 16 -27 37 -30 47 -4 11 -11 19 -16 19 -5 0 -9 7 -9 15 0 8 -4 15 -10 15
-5 0 -10 6 -10 14 0 8 -4 16 -8 18 -5 2 -23 24 -40 50 -45 65 -60 78 -90 78
-23 0 -93 -37 -112 -59 -3 -3 -17 -12 -32 -20 -15 -8 -36 -21 -46 -30 -25 -22
-61 -42 -82 -46 -17 -3 -48 23 -142 121 -26 27 -70 69 -97 94 -73 66 -74 81
-4 187 32 48 61 90 66 91 4 2 7 10 7 18 0 8 4 14 9 14 14 0 20 53 8 75 -12 22
-33 45 -42 45 -8 0 -69 43 -73 53 -2 4 -9 7 -16 7 -7 0 -22 9 -34 20 -12 12
-22 17 -22 13 0 -4 -7 1 -15 11 -8 11 -15 16 -15 12 0 -6 -64 37 -80 54 -8 8
-54 26 -65 25 -22 -1 -53 -33 -90 -93 -21 -35 -45 -66 -53 -71 -7 -4 -13 -11
-12 -15 4 -17 -41 -76 -62 -81 -15 -4 -55 9 -118 38 -52 24 -130 56 -173 71
-89 32 -102 48 -91 109 4 23 8 53 8 67 1 14 4 27 8 30 3 3 9 21 12 40 19 102
19 108 -2 135 -11 14 -23 26 -26 26 -3 -1 -7 -1 -8 0 -4 1 -27 6 -68 14 -19 3
-45 7 -57 8 -13 0 -23 5 -23 9 0 5 -13 6 -30 3 -16 -3 -30 -2 -30 3 0 4 -17 9
-37 10 -20 2 -42 6 -48 10 -8 7 -68 8 -111 3 -18 -2 -30 -39 -54 -166 -12 -66
-28 -130 -36 -141 -12 -21 -20 -22 -193 -22 -100 -1 -186 -4 -191 -7 -6 -3
-10 -1 -10 5 0 6 -4 9 -10 5 -20 -13 -50 66 -54 145 0 14 -4 27 -8 30 -4 3 -9
21 -11 41 -2 19 -7 40 -11 47 -4 7 -5 16 -2 21 11 17 -35 45 -75 46 -21 1 -41
0 -42 -1z"/>
<path d="M3570 5610 c0 -4 -24 -6 -52 -5 -29 1 -57 -1 -63 -4 -5 -3 -19 -7
-30 -8 -47 -6 -159 -27 -175 -33 -3 -1 -9 -2 -14 -1 -4 1 -14 -4 -22 -10 -8
-6 -14 -8 -14 -5 0 4 -10 1 -22 -6 -13 -6 -32 -12 -42 -13 -11 -1 -22 -7 -24
-14 -2 -6 -8 -9 -13 -5 -11 6 -209 -91 -273 -135 -25 -17 -49 -31 -55 -31 -6
0 -11 -3 -11 -7 0 -5 -17 -19 -37 -33 -21 -14 -45 -32 -54 -40 -42 -37 -226
-220 -222 -220 3 0 -10 -19 -29 -42 -82 -102 -202 -312 -200 -350 0 -10 -3
-18 -9 -18 -5 0 -9 -4 -9 -9 0 -5 -5 -22 -12 -38 -12 -30 -14 -38 -22 -68 -2
-11 -8 -31 -14 -45 -5 -14 -7 -31 -5 -37 3 -7 0 -13 -6 -13 -5 0 -8 -9 -6 -20
2 -11 0 -20 -5 -20 -5 0 -7 -10 -5 -21 3 -12 1 -27 -3 -33 -4 -6 -7 -23 -8
-38 -1 -16 -2 -29 -4 -30 -10 -12 -18 -308 -9 -314 4 -2 6 -24 5 -49 -1 -25 1
-45 4 -45 3 0 7 -15 7 -32 3 -48 8 -78 22 -128 8 -25 15 -52 16 -60 2 -8 4
-16 5 -17 2 -2 4 -7 5 -13 1 -5 3 -11 5 -12 2 -3 6 -19 14 -58 3 -14 10 -26
15 -28 6 -2 8 -9 5 -16 -3 -8 2 -20 10 -29 9 -9 16 -22 16 -29 0 -23 93 -185
160 -280 83 -119 240 -275 358 -358 102 -72 281 -172 294 -164 4 3 8 0 8 -6 0
-6 5 -8 10 -5 6 3 10 1 10 -6 0 -7 3 -9 6 -6 4 3 16 1 28 -5 11 -7 27 -13 34
-14 8 -1 21 -6 30 -10 19 -8 26 -10 60 -18 83 -21 111 -27 137 -31 11 -1 20
-3 20 -5 0 -3 45 -9 85 -11 19 -1 39 -4 45 -7 5 -3 72 -4 150 -3 191 4 205 5
205 13 0 4 8 7 18 7 20 0 97 9 97 11 0 2 8 4 74 20 24 6 49 14 55 18 7 4 -43
60 -124 138 l-135 131 -95 -9 c-163 -16 -419 19 -552 76 -21 9 -40 16 -43 16
-3 0 -20 7 -38 17 -17 9 -36 17 -40 18 -4 0 -11 6 -16 13 -4 7 -15 14 -23 15
-45 7 -328 236 -328 266 0 3 -13 20 -28 36 -15 17 -37 45 -47 63 -11 17 -23
32 -27 32 -4 0 -8 6 -8 14 0 7 -7 19 -15 26 -8 7 -15 19 -15 27 0 8 -7 21 -15
30 -8 8 -13 19 -10 24 4 5 2 9 -2 9 -11 0 -43 70 -43 93 0 9 -5 19 -10 22 -6
4 -8 11 -5 16 4 5 1 9 -4 9 -6 0 -10 3 -10 8 1 4 1 9 -1 12 -1 3 -3 16 -6 30
-2 14 -7 32 -11 40 -12 29 -21 82 -30 170 -3 36 -8 66 -12 68 -4 1 -3 50 1
110 4 59 6 113 3 120 -2 6 0 12 6 12 6 0 9 12 8 28 -2 15 0 32 4 38 3 6 9 26
11 45 3 19 13 59 22 89 10 30 18 57 19 60 1 3 7 18 13 33 7 16 12 33 12 38 0
5 5 9 11 9 5 0 7 5 4 10 -3 6 -1 10 5 10 6 0 9 4 5 9 -3 5 1 16 9 24 8 8 12
17 9 21 -4 3 0 6 7 6 7 0 10 3 7 6 -4 4 2 19 13 34 11 16 20 33 20 38 0 6 4
12 8 14 5 2 22 24 40 49 41 61 205 226 262 264 25 17 47 33 48 38 2 4 10 7 18
7 8 0 14 5 14 10 0 6 6 10 14 10 8 0 21 6 28 13 16 15 70 41 81 39 4 -1 7 3 7
9 0 5 5 7 10 4 6 -3 10 -2 10 3 0 5 20 15 45 22 25 7 48 17 51 22 3 4 10 6 15
2 5 -3 16 0 24 6 8 7 15 9 15 6 0 -4 8 -2 18 3 16 9 51 17 117 27 41 6 70 12
70 14 0 1 69 3 153 3 83 1 152 -1 152 -5 0 -4 10 -8 23 -8 27 0 82 -7 82 -10
0 -1 16 -4 35 -7 19 -2 40 -9 47 -15 7 -5 17 -7 23 -3 5 3 10 1 10 -4 0 -6 3
-10 8 -9 12 5 162 -55 162 -65 0 -4 5 -5 10 -2 6 3 10 1 10 -5 0 -6 4 -9 9 -6
18 12 192 -117 287 -212 111 -110 145 -151 171 -202 10 -19 23 -40 30 -47 6
-7 25 -43 43 -80 17 -38 36 -77 41 -88 6 -12 11 -27 12 -35 2 -8 5 -19 8 -25
4 -5 10 -23 14 -40 12 -45 12 -45 15 -47 1 -2 3 -12 5 -23 2 -11 6 -31 10 -45
15 -60 23 -327 12 -415 -3 -23 2 -34 22 -47 14 -10 22 -18 16 -18 -5 -1 0 -6
12 -13 12 -7 22 -15 23 -19 2 -9 130 -136 130 -129 1 3 7 -5 15 -19 8 -14 14
-21 15 -16 0 6 6 1 14 -10 8 -10 17 -16 20 -13 6 6 31 103 42 159 13 72 15 86
18 141 1 31 5 60 8 65 8 15 -3 238 -16 334 -10 70 -44 197 -78 290 -34 94
-127 280 -140 280 -4 0 -8 6 -8 13 0 7 -9 23 -20 35 -11 12 -20 26 -20 32 0 5
-4 10 -10 10 -5 0 -9 3 -8 8 3 7 -19 36 -54 74 -10 10 -16 18 -13 18 3 0 -33
38 -80 85 -46 47 -87 85 -90 85 -3 0 -16 10 -29 23 -37 35 -136 106 -200 144
-52 31 -226 113 -238 113 -8 0 -18 4 -24 9 -5 6 -20 12 -34 15 -14 3 -41 10
-60 16 -19 7 -45 13 -57 15 -11 2 -29 6 -40 9 -37 11 -121 24 -203 30 -25 2
-45 5 -45 6 0 1 -39 3 -87 4 -49 1 -88 -1 -88 -4z"/>
<path d="M3640 4950 c0 -7 -15 -11 -37 -9 -21 1 -49 -1 -63 -5 -14 -3 -34 -8
-45 -10 -55 -10 -85 -19 -85 -27 0 -4 107 -115 238 -246 131 -131 246 -253
255 -272 25 -50 21 -108 -10 -172 -33 -67 -287 -325 -352 -358 -53 -28 -131
-35 -174 -17 -18 7 -141 122 -275 254 -133 133 -246 242 -250 242 -21 0 -46
-157 -45 -280 1 -156 43 -336 91 -392 8 -10 11 -18 7 -18 -4 0 0 -9 10 -20 10
-11 14 -20 9 -20 -5 0 0 -7 10 -15 11 -8 16 -15 10 -15 -5 0 0 -7 10 -15 11
-8 17 -15 13 -15 -4 0 1 -10 11 -22 24 -31 162 -170 162 -164 0 3 12 -6 26
-19 15 -14 33 -25 40 -25 8 0 14 -5 14 -11 0 -5 5 -7 10 -4 6 3 10 2 10 -3 0
-12 126 -69 203 -93 34 -10 106 -24 160 -31 97 -12 142 -9 342 26 16 3 153
-129 589 -564 l569 -569 -18 -83 c-33 -149 -23 -326 28 -473 21 -62 88 -196
110 -221 25 -28 37 -43 37 -48 0 -4 120 -123 159 -158 11 -9 22 -14 25 -10 3
3 6 0 6 -6 0 -7 7 -12 15 -12 8 0 15 -3 15 -7 0 -5 10 -13 23 -19 205 -104
227 -109 447 -109 186 0 280 13 280 39 0 6 -106 117 -236 246 -129 129 -244
251 -254 270 -24 48 -17 160 11 160 6 0 8 4 5 8 -3 5 4 19 15 30 11 12 16 22
12 22 -16 0 289 291 325 309 54 28 102 34 153 21 38 -10 77 -45 294 -260 154
-154 252 -244 257 -237 4 6 4 15 2 19 -3 4 0 8 6 8 6 0 8 11 6 25 -3 14 -1 25
3 25 10 0 11 15 14 185 2 83 0 155 -4 160 -3 6 -7 18 -8 28 0 9 -2 25 -2 35
-2 26 -70 196 -80 200 -5 2 -9 8 -9 13 0 22 -88 138 -154 205 -77 76 -189 154
-248 173 -21 7 -38 17 -38 23 0 6 -7 8 -15 4 -8 -3 -15 -1 -15 4 0 6 -3 9 -7
9 -5 -1 -10 0 -13 1 -3 1 -12 3 -20 5 -8 2 -25 6 -37 9 -101 25 -136 29 -243
29 -58 -1 -130 -7 -160 -13 -30 -7 -65 -13 -78 -13 -17 -2 -152 128 -592 567
-468 466 -569 572 -564 589 3 11 8 27 9 36 2 9 4 18 5 21 1 3 2 13 1 23 -1 9
1 17 6 17 4 0 9 17 9 38 1 20 3 64 4 97 2 33 0 71 -3 85 -4 14 -9 45 -11 70
-2 25 -5 45 -6 45 -1 0 -6 17 -13 48 -1 6 -6 18 -10 25 -5 6 -5 17 -2 22 3 6
1 10 -4 10 -6 0 -10 3 -9 8 4 18 -57 141 -105 212 -41 60 -158 181 -168 174
-5 -3 -9 -1 -9 5 0 18 -202 138 -243 145 -7 1 -18 5 -24 9 -7 5 -13 6 -13 3 0
-3 -12 -1 -27 5 -16 6 -37 13 -48 15 -11 2 -31 6 -44 9 -14 2 -61 7 -105 11
-45 3 -84 8 -88 11 -5 2 -8 -1 -8 -7z"/>
</g>
</svg>
